<svg xmlns="http://www.w3.org/2000/svg" width="21.754" height="18.555" viewBox="0 0 21.754 18.555">
  <path id="Icon_awesome-layer-group" data-name="Icon awesome-layer-group" d="M.527,5.364l9.9,3.829a1.26,1.26,0,0,0,.9,0l9.9-3.829a.762.762,0,0,0,0-1.451l-9.9-3.83a1.26,1.26,0,0,0-.9,0L.527,3.913a.763.763,0,0,0,0,1.451Zm20.7,3.2-2.468-.954L11.89,10.264a2.836,2.836,0,0,1-2.027,0L3,7.609.527,8.563a.762.762,0,0,0,0,1.45l9.9,3.826a1.264,1.264,0,0,0,.9,0l9.9-3.826a.762.762,0,0,0,0-1.45Zm0,4.631-2.459-.951L11.89,14.9a2.836,2.836,0,0,1-2.027,0L2.986,12.244l-2.459.951a.762.762,0,0,0,0,1.45l9.9,3.826a1.264,1.264,0,0,0,.9,0l9.9-3.826a.762.762,0,0,0,0-1.45Z" transform="translate(0 0.001)" fill="#200e32"/>
</svg>
