<svg xmlns="http://www.w3.org/2000/svg" width="22" height="20.414" viewBox="0 0 22 20.414">
  <path id="Path_98787" data-name="Path 98787" d="M13,13v5.585l1.828-1.828,1.414,1.414L12,22.414,7.757,18.172l1.414-1.414L11,18.585V13ZM12,2a7,7,0,0,1,6.954,6.194A5.5,5.5,0,0,1,18,18.978V16.964A3.5,3.5,0,0,0,17.5,10a3.445,3.445,0,0,0-.611.054A5,5,0,1,0,7,9a4.958,4.958,0,0,0,.112,1.053A3.5,3.5,0,0,0,5.82,16.934l.18.031v2.013A5.5,5.5,0,0,1,5.046,8.194,7,7,0,0,1,12,2Z" transform="translate(-1 -2)" fill="#fff"/>
</svg>
