<svg xmlns="http://www.w3.org/2000/svg" width="23.033" height="18.555" viewBox="0 0 23.033 18.555">
  <path id="Icon_awesome-list-ul" data-name="Icon awesome-list-ul" d="M2.159,3.375A2.141,2.141,0,1,0,4.319,5.516,2.15,2.15,0,0,0,2.159,3.375Zm0,7.136a2.141,2.141,0,1,0,2.159,2.141A2.15,2.15,0,0,0,2.159,10.511Zm0,7.136a2.141,2.141,0,1,0,2.159,2.141,2.15,2.15,0,0,0-2.159-2.141Zm20.154.714H7.918a.717.717,0,0,0-.72.714V20.5a.717.717,0,0,0,.72.714h14.4a.717.717,0,0,0,.72-.714V19.075A.717.717,0,0,0,22.313,18.361Zm0-14.273H7.918A.717.717,0,0,0,7.2,4.8V6.23a.717.717,0,0,0,.72.714h14.4a.717.717,0,0,0,.72-.714V4.8A.717.717,0,0,0,22.313,4.089Zm0,7.136H7.918a.717.717,0,0,0-.72.714v1.427a.717.717,0,0,0,.72.714h14.4a.717.717,0,0,0,.72-.714V11.939A.717.717,0,0,0,22.313,11.225Z" transform="translate(0 -3.375)" fill="#200e32"/>
</svg>
