<svg xmlns="http://www.w3.org/2000/svg" width="18.792" height="19.618" viewBox="0 0 18.792 19.618">
  <g id="Home" transform="translate(1.25 1.368)">
    <path id="Home-2" data-name="Home" d="M5.708,15.956V13.349a1.218,1.218,0,0,1,1.221-1.206H9.4a1.218,1.218,0,0,1,1.229,1.206h0v2.615A1.046,1.046,0,0,0,11.664,17h1.65a2.951,2.951,0,0,0,2.978-2.922h0V6.662a2.068,2.068,0,0,0-.825-1.619L9.824.583a2.746,2.746,0,0,0-3.382,0L.825,5.051A2.052,2.052,0,0,0,0,6.67v7.407A2.951,2.951,0,0,0,2.978,17h1.65a1.054,1.054,0,0,0,1.064-1.044h0" transform="translate(0 0)" fill="none" stroke="#626972" stroke-linecap="round" stroke-linejoin="round" stroke-width="2.5"/>
  </g>
</svg>
