<svg xmlns="http://www.w3.org/2000/svg" width="17.51" height="15.696" viewBox="0 0 17.51 15.696">
  <path id="Path_98823" data-name="Path 98823" d="M3.08,6.885l1.047,8.9H15.885l1.047-8.9L13.668,9.061,10.006,3.935,6.344,9.061ZM2.517,4.553,5.935,6.832,9.343,2.061a.814.814,0,0,1,1.325,0l3.408,4.771L17.5,4.553a.814.814,0,0,1,1.26.772L17.417,16.7a.814.814,0,0,1-.809.719H3.4a.814.814,0,0,1-.809-.719L1.257,5.326a.814.814,0,0,1,1.26-.772Zm7.489,7.978A1.628,1.628,0,1,1,11.634,10.9,1.628,1.628,0,0,1,10.006,12.531Z" transform="translate(-1.251 -1.72)" fill="#1d82f5"/>
</svg>
