<svg xmlns="http://www.w3.org/2000/svg" width="21.502" height="19.5" viewBox="0 0 21.502 19.5">
  <g id="Message" transform="translate(1.25 1.25)">
    <path id="Path_445" d="M11.178,0,6.964,3.411a2.187,2.187,0,0,1-2.713,0L0,0" transform="translate(3.907 5.523)" fill="none" stroke="#fff" stroke-linecap="round" stroke-linejoin="round" stroke-width="2.5"/>
    <path id="Rectangle_511" d="M4.829,0h9.315a4.886,4.886,0,0,1,3.537,1.579,5,5,0,0,1,1.31,3.679v6.484a5,5,0,0,1-1.31,3.679A4.886,4.886,0,0,1,14.144,17H4.829C1.944,17,0,14.641,0,11.742V5.258C0,2.359,1.944,0,4.829,0Z" transform="translate(0 0)" fill="none" stroke="#fff" stroke-linecap="round" stroke-linejoin="round" stroke-width="2.5"/>
  </g>
</svg>
