<svg xmlns="http://www.w3.org/2000/svg" width="13.513" height="17.736" viewBox="0 0 13.513 17.736">
  <path id="Path_98821" data-name="Path 98821" d="M10.756,6.223A6.756,6.756,0,1,1,4,12.979,6.756,6.756,0,0,1,10.756,6.223Zm0,1.689a5.067,5.067,0,1,0,5.067,5.067A5.067,5.067,0,0,0,10.756,7.912Zm0,1.267,1.117,2.263,2.5.363-1.807,1.762.427,2.487-2.234-1.174L8.523,16.054l.427-2.487L7.142,11.8l2.5-.363ZM15.824,2V4.533l-1.151.961a8.391,8.391,0,0,0-3.07-.919V2ZM9.912,2V4.575a8.391,8.391,0,0,0-3.07.919l-1.152-.96V2Z" transform="translate(-4 -1.999)" fill="#8120f4"/>
</svg>
