<svg xmlns="http://www.w3.org/2000/svg" width="21.517" height="21.5" viewBox="0 0 21.517 21.5">
  <g id="Setting" transform="translate(1.259 1.25)">
    <path id="Path_33946" d="M18.724,5.284l-.665-1.068a2.135,2.135,0,0,0-2.787-.7h0a2.177,2.177,0,0,1-1.543.2,2.024,2.024,0,0,1-1.243-.87,1.709,1.709,0,0,1-.274-.9h0A1.816,1.816,0,0,0,11.634.573,2.128,2.128,0,0,0,10.168,0H8.829A2.12,2.12,0,0,0,7.387.554a1.813,1.813,0,0,0-.592,1.337h0A1.974,1.974,0,0,1,4.751,3.755,2.076,2.076,0,0,1,3.774,3.5h0a2.135,2.135,0,0,0-2.787.7L.273,5.284a1.816,1.816,0,0,0,.743,2.579h0a1.823,1.823,0,0,1,0,3.275h0a1.807,1.807,0,0,0-.743,2.57h0l.675,1.077a2.023,2.023,0,0,0,1.229.9,2.19,2.19,0,0,0,1.558-.169h0a2.167,2.167,0,0,1,1.543-.192,2.01,2.01,0,0,1,1.234.879,1.709,1.709,0,0,1,.274.9h0A1.972,1.972,0,0,0,8.829,19h1.34a1.973,1.973,0,0,0,2.044-1.882h0a1.813,1.813,0,0,1,.6-1.34,2.121,2.121,0,0,1,1.448-.551,2.211,2.211,0,0,1,.978.253h0a2.136,2.136,0,0,0,2.787-.688h0l.7-1.086a1.76,1.76,0,0,0,.208-1.432,1.909,1.909,0,0,0-.951-1.146h0a1.909,1.909,0,0,1-.951-1.146,1.76,1.76,0,0,1,.208-1.432,1.936,1.936,0,0,1,.743-.688h0a1.816,1.816,0,0,0,.743-2.57h0Z" transform="translate(0)" fill="none" stroke="#626972" stroke-linecap="round" stroke-linejoin="round" stroke-width="2.5"/>
    <ellipse id="Ellipse_737" cx="2.816" cy="2.606" rx="2.816" ry="2.606" transform="translate(6.687 6.894)" fill="none" stroke="#626972" stroke-linecap="round" stroke-linejoin="round" stroke-width="2.5"/>
  </g>
</svg>
