<svg id="Ticket" xmlns="http://www.w3.org/2000/svg" width="23" height="18" viewBox="0 0 23 18">
  <path id="Ticket-2" data-name="Ticket" d="M18.652,18H15.026a.663.663,0,0,1-.679-.645V15.072a.806.806,0,0,0-.834-.793.815.815,0,0,0-.834.793v2.283A.662.662,0,0,1,12,18H4.349A4.25,4.25,0,0,1,0,13.867V11.156a.79.79,0,0,1,.85-.744A1.46,1.46,0,0,0,2.325,8.995,1.382,1.382,0,0,0,.834,7.674a.854.854,0,0,1-.59-.233A.768.768,0,0,1,0,6.881V4.143A4.26,4.26,0,0,1,4.359,0H12a.662.662,0,0,1,.677.645V3.35a.825.825,0,0,0,.834.793.815.815,0,0,0,.834-.793V.645A.663.663,0,0,1,15.026,0h3.626A4.249,4.249,0,0,1,23,4.133V6.8a.773.773,0,0,1-.244.561.854.854,0,0,1-.59.232,1.413,1.413,0,1,0-.016,2.823.79.79,0,0,1,.85.744v2.711A4.249,4.249,0,0,1,18.652,18ZM13.513,6.416a.825.825,0,0,0-.834.792v4.228a.825.825,0,0,0,.834.793.815.815,0,0,0,.834-.793V7.208A.815.815,0,0,0,13.513,6.416Z" fill="#200e32"/>
</svg>
