<svg xmlns="http://www.w3.org/2000/svg" width="20" height="20" viewBox="0 0 20 20">
  <g id="Time_Circle" data-name="Time Circle" transform="translate(0.479)">
    <path id="Time_Circle-2" data-name="Time Circle" d="M10,20A10,10,0,0,1,10,0a10,10,0,0,1,7.074,17.074A9.937,9.937,0,0,1,10,20ZM9.65,4.93a.751.751,0,0,0-.75.75v5.05a.747.747,0,0,0,.37.64l3.92,2.34a.764.764,0,0,0,.39.111.746.746,0,0,0,.64-.371.756.756,0,0,0-.26-1.03L10.4,10.3V5.68A.751.751,0,0,0,9.65,4.93Z" transform="translate(-0.479)" fill="#200e32"/>
  </g>
</svg>
