<svg xmlns="http://www.w3.org/2000/svg" width="22" height="20.414" viewBox="0 0 22 20.414">
  <path id="Path_98801" data-name="Path 98801" d="M13,11.414V5.829l1.828,1.828,1.414-1.414L12,2,7.757,6.243,9.172,7.657,11,5.829v5.585Zm-1,11a7,7,0,0,0,6.954-6.194A5.5,5.5,0,0,0,18,5.437V7.45a3.5,3.5,0,0,1-.5,6.964,3.445,3.445,0,0,1-.611-.054A5,5,0,1,1,7,15.414a4.958,4.958,0,0,1,.112-1.053A3.5,3.5,0,0,1,5.82,7.48L6,7.45V5.437A5.5,5.5,0,0,0,5.046,16.22,7,7,0,0,0,12,22.414Z" transform="translate(-1 -2)" fill="#171f29"/>
</svg>
