<svg id="_3_User" data-name="3 User" xmlns="http://www.w3.org/2000/svg" width="26" height="18" viewBox="0 0 26 18">
  <path id="_3_Friends" data-name="3 Friends" d="M5.422,14.94c0-2.449,3.44-3.083,7.518-3.083,4.055,0,7.517.612,7.517,3.061S17.017,18,12.94,18C8.885,18,5.422,17.387,5.422,14.94Zm17.134.454c.348-3.113-2.421-4.59-3.138-4.93-.031-.015-.037-.038-.034-.053a.044.044,0,0,1,.038-.029,19.2,19.2,0,0,1,3.833.32,3.28,3.28,0,0,1,2.519,1.466,2.075,2.075,0,0,1,0,1.879c-.545,1.123-2.3,1.484-2.979,1.577l-.032,0A.209.209,0,0,1,22.556,15.394ZM3.2,15.625C2.524,15.532.77,15.171.227,14.047a2.06,2.06,0,0,1,0-1.878A3.275,3.275,0,0,1,2.744,10.7a19.394,19.394,0,0,1,3.833-.318.043.043,0,0,1,.037.028.051.051,0,0,1-.033.054C5.864,10.8,3.1,12.28,3.443,15.393a.208.208,0,0,1-.207.234ZM7.966,4.762A4.853,4.853,0,0,1,12.94,0a4.854,4.854,0,0,1,4.975,4.762A4.856,4.856,0,0,1,12.94,9.524,4.855,4.855,0,0,1,7.966,4.762Zm11.609,4.06A4.209,4.209,0,0,1,19,8.769a.177.177,0,0,1-.126-.275,6.312,6.312,0,0,0-.1-7.438.115.115,0,0,1-.019-.125.155.155,0,0,1,.1-.056,4.347,4.347,0,0,1,.837-.082A4.069,4.069,0,0,1,23.74,5.872a4.12,4.12,0,0,1-4.052,2.951ZM2.259,5.872A4.069,4.069,0,0,1,6.306.794a4.374,4.374,0,0,1,.838.082.16.16,0,0,1,.1.056.113.113,0,0,1-.019.124,6.311,6.311,0,0,0-.1,7.439A.177.177,0,0,1,7,8.769a4.068,4.068,0,0,1-.571.053H6.311A4.122,4.122,0,0,1,2.259,5.872Z" fill="#200e32"/>
</svg>
