<svg xmlns="http://www.w3.org/2000/svg" width="19.281" height="19.281" viewBox="0 0 19.281 19.281">
  <path id="Path_98020" data-name="Path 98020" d="M13.569,7.784h.964a.964.964,0,1,0,0-1.928h-.964a.964.964,0,1,0,0,1.928Zm0,3.856h.964a.964.964,0,1,0,0-1.928h-.964a.964.964,0,1,0,0,1.928ZM8.748,7.784h.964a.964.964,0,1,0,0-1.928H8.748a.964.964,0,0,0,0,1.928Zm0,3.856h.964a.964.964,0,0,0,0-1.928H8.748a.964.964,0,0,0,0,1.928Zm11.569,7.712h-.964V2.964A.964.964,0,0,0,18.389,2H4.892a.964.964,0,0,0-.964.964V19.353H2.964a.964.964,0,0,0,0,1.928H20.317a.964.964,0,1,0,0-1.928Zm-7.712,0H10.677V15.5H12.6Zm4.82,0H14.533v-4.82s-.432-.964-.964-.964H9.713a.964.964,0,0,0-.964.964v4.82H5.856V3.928H17.425Z" transform="translate(-2 -2)" fill="#626972"/>
</svg>
