<svg id="Layer_2" data-name="Layer 2" xmlns="http://www.w3.org/2000/svg" width="17.358" height="17.358" viewBox="0 0 17.358 17.358">
  <path id="Path_20" data-name="Path 20" d="M16.878,11.982V10A6.15,6.15,0,0,0,11.3,3.888V2.62a.62.62,0,1,0-1.24,0V3.888A6.15,6.15,0,0,0,4.48,10v1.978A3.1,3.1,0,0,0,2,15.019a1.862,1.862,0,0,0,1.86,1.86H7.642a3.1,3.1,0,0,0,6.074,0H17.5a1.862,1.862,0,0,0,1.86-1.86A3.1,3.1,0,0,0,16.878,11.982ZM5.72,10a4.91,4.91,0,0,1,4.9-4.9h.112a4.91,4.91,0,0,1,4.9,4.9v1.916H5.72Zm4.959,8.115a1.857,1.857,0,0,1-1.746-1.24h3.491A1.857,1.857,0,0,1,10.679,18.118Zm6.819-2.48H3.86a.62.62,0,0,1-.62-.62,1.862,1.862,0,0,1,1.86-1.86H16.258a1.862,1.862,0,0,1,1.86,1.86A.62.62,0,0,1,17.5,15.638Z" transform="translate(-2 -2)" fill="#eeebeb"/>
</svg>
